<svg xmlns="http://www.w3.org/2000/svg" fill="none" viewBox="0 0 167 44"><path fill="#7653FC" d="M67.69 34.435h-5.76l-9.33-16.2h-.12a997.083 997.083 0 0 1 .12 3.06c.04.5.07 1.01.09 1.53l.06 1.53v10.08H48.7v-21.42h5.73l9.3 16.05h.09a884.482 884.482 0 0 0-.12-2.94c0-.5-.01-.99-.03-1.47l-.06-1.5v-10.14h4.08v21.42Zm17.744 0h-12.33v-21.42h12.33v3.72h-7.8v4.71h7.26v3.72h-7.26v5.52h7.8v3.75Zm21.767 0h-5.19l-4.98-8.1-4.98 8.1h-4.86l7.11-11.04-6.66-10.38h5.01l4.62 7.71 4.53-7.71h4.89l-6.72 10.62 7.23 10.8Zm10.95 0h-4.53v-17.64h-5.82v-3.78h16.17v3.78h-5.82v17.64ZM132.456 20.5c1.36 0 2.376.36 3.048 1.08.688.703 1.032 1.831 1.032 3.383v8.472h-.744l-.168-2.352h-.048c-.256.48-.584.92-.984 1.32-.384.4-.864.712-1.44.936-.576.224-1.288.336-2.136.336-.832 0-1.536-.136-2.112-.408-.576-.288-1.016-.688-1.32-1.2-.288-.512-.432-1.12-.432-1.824 0-1.264.52-2.216 1.56-2.856 1.056-.656 2.552-1.032 4.488-1.128l2.4-.144v-.96c0-1.376-.264-2.352-.792-2.928-.528-.592-1.32-.888-2.376-.888a7.42 7.42 0 0 0-1.896.24 8.593 8.593 0 0 0-1.872.72l-.288-.816c.624-.288 1.272-.52 1.944-.696a7.909 7.909 0 0 1 2.136-.288Zm.84 6.503c-1.632.08-2.904.376-3.816.888-.912.512-1.368 1.296-1.368 2.352 0 .832.264 1.48.792 1.944.528.448 1.264.672 2.208.672 1.504 0 2.624-.424 3.36-1.272.736-.848 1.112-1.984 1.128-3.408v-1.272l-2.304.096Zm12.852-6.528c1.664 0 2.936.552 3.816 1.656.896 1.104 1.344 2.72 1.344 4.848 0 1.424-.216 2.64-.648 3.648-.416.992-1.024 1.752-1.824 2.28-.784.512-1.744.768-2.88.768-.784 0-1.472-.128-2.064-.384-.592-.256-1.08-.592-1.464-1.008a4.437 4.437 0 0 1-.84-1.392h-.048c.032.48.048.976.048 1.488V39.051h-.912V20.715h.768l.096 2.784h.048c.192-.528.48-1.016.864-1.464.4-.464.904-.84 1.512-1.128.624-.288 1.352-.432 2.184-.432Zm-.072.84c-.992 0-1.816.224-2.472.672-.656.448-1.152 1.096-1.488 1.944-.336.832-.512 1.848-.528 3.048v.144c0 1.296.168 2.368.504 3.216.352.832.84 1.456 1.464 1.872.64.416 1.424.624 2.352.624.944 0 1.744-.224 2.4-.672.656-.448 1.16-1.104 1.512-1.968.352-.88.528-1.952.528-3.216 0-1.888-.36-3.304-1.08-4.248-.704-.944-1.768-1.416-3.192-1.416Zm14.228-.84c1.664 0 2.936.552 3.816 1.656.896 1.104 1.344 2.72 1.344 4.848 0 1.424-.216 2.64-.648 3.648-.416.992-1.024 1.752-1.824 2.28-.784.512-1.744.768-2.88.768-.784 0-1.472-.128-2.064-.384-.592-.256-1.08-.592-1.464-1.008a4.437 4.437 0 0 1-.84-1.392h-.048c.032.48.048.976.048 1.488V39.051h-.912V20.715h.768l.096 2.784h.048c.192-.528.48-1.016.864-1.464.4-.464.904-.84 1.512-1.128.624-.288 1.352-.432 2.184-.432Zm-.072.84c-.992 0-1.816.224-2.472.672-.656.448-1.152 1.096-1.488 1.944-.336.832-.512 1.848-.528 3.048v.144c0 1.296.168 2.368.504 3.216.352.832.84 1.456 1.464 1.872.64.416 1.424.624 2.352.624.944 0 1.744-.224 2.4-.672.656-.448 1.16-1.104 1.512-1.968.352-.88.528-1.952.528-3.216 0-1.888-.36-3.304-1.08-4.248-.704-.944-1.768-1.416-3.192-1.416ZM41 1.744a1.19 1.19 0 0 0-1.201-1.18 1.19 1.19 0 0 0-1.201 1.18c0 1.279-1.137 2.359-2.483 2.359h-5.418c-3.09-1.544-6.608-2.359-10.197-2.359-3.59 0-7.108.815-10.197 2.359H4.9c-1.353 0-2.497-1.08-2.497-2.36a1.19 1.19 0 0 0-1.2-1.178A1.19 1.19 0 0 0 0 1.744v3.538c0 2.188.882 4.25 2.484 5.812C.856 13.706 0 16.569 0 19.434c0 9.754 9.196 17.69 20.5 17.69S41 29.188 41 19.434c0-2.86-.854-5.72-2.477-8.33C40.053 9.612 41 7.553 41 5.283V1.744ZM20.5 4.103c1.914 0 3.802.258 5.6.757a10.807 10.807 0 0 0-5.593 4.998 10.804 10.804 0 0 0-5.598-5 20.943 20.943 0 0 1 5.591-.755Zm0 19.579c.45.732 1.01 1.39 1.661 1.952L20.5 28.71l-1.661-3.076a8.355 8.355 0 0 0 1.661-1.952Zm-7.207 1.649c-3.312 0-6.006-2.645-6.006-5.897 0-3.251 2.694-5.897 6.006-5.897 3.312 0 6.006 2.646 6.006 5.897 0 3.252-2.694 5.897-6.006 5.897Zm8.408-5.897c0-.094.003-.187.007-.28a1.15 1.15 0 0 0 .014-.172v-.022c.247-3.03 2.836-5.423 5.985-5.423 3.312 0 6.006 2.646 6.006 5.897 0 3.252-2.694 5.897-6.006 5.897-3.312 0-6.006-2.645-6.006-5.897ZM2.426 5.806A4.967 4.967 0 0 0 4.9 6.46h5.992c2.248 0 4.361.86 5.95 2.423a8.137 8.137 0 0 1 2.38 4.7 8.452 8.452 0 0 0-5.175-2.372 1.222 1.222 0 0 0-.28-.033H8.503a6.21 6.21 0 0 1-3.525-1.087 1.187 1.187 0 0 0-.396-.296c-1.202-.976-2.01-2.393-2.156-3.99Zm36.172 13.628c0 8.454-8.119 15.331-18.098 15.331-9.98 0-18.098-6.877-18.098-15.33 0-2.36.694-4.732 2.015-6.921a8.568 8.568 0 0 0 3.06.963c-1.596 1.504-2.592 3.618-2.592 5.957 0 4.552 3.772 8.255 8.408 8.255a8.49 8.49 0 0 0 3.526-.761l2.62 4.852c.208.386.616.627 1.061.627.445 0 .853-.241 1.061-.627l2.62-4.852a8.49 8.49 0 0 0 3.526.761c4.636 0 8.408-3.703 8.408-8.255 0-2.338-.995-4.452-2.591-5.956a8.593 8.593 0 0 0 3.064-.957c1.318 2.188 2.01 4.556 2.01 6.913Zm-2.2-9.619a1.196 1.196 0 0 0-.357.266 6.184 6.184 0 0 1-3.53 1.098h-5.263c-.093 0-.184.011-.272.031a8.452 8.452 0 0 0-5.18 2.358 8.138 8.138 0 0 1 2.378-4.684 8.431 8.431 0 0 1 5.95-2.423h5.991c.873 0 1.716-.226 2.458-.649-.148 1.606-.963 3.027-2.174 4.003Z"/><path fill="#7653FC" d="m13.5 16.683 1.01 2.591h3.27l-2.645 1.602 1.01 2.59-2.645-1.6-2.645 1.6 1.01-2.59-2.645-1.602h3.27l1.01-2.59ZM27.5 16.683l1.01 2.591h3.27l-2.645 1.602 1.01 2.59-2.645-1.6-2.645 1.6 1.01-2.59-2.645-1.602h3.27l1.01-2.59Z"/></svg>